<svg xmlns="http://www.w3.org/2000/svg" xmlns:xlink="http://www.w3.org/1999/xlink" width="57" height="79" viewBox="0 0 57 79"><defs><path id="al9na" d="M142.38 421.586l-4.798 7.701-23.949-14.91 4.794-7.701a7.257 7.257 0 0 1 9.995-2.326l11.633 7.242a7.257 7.257 0 0 1 2.324 9.994zm-28.793 46.156L89.69 452.835l22.119-35.455 23.897 14.92zm3.226-41.385c-1.125-.7-2.573-.41-3.214.636l-15.725 25.19c-.66 1.031-.283 2.459.849 3.16 1.114.706 2.561.415 3.217-.613l15.721-25.198c.656-1.045.27-2.477-.848-3.175zm8.658 5.402c-1.12-.69-2.576-.413-3.218.634l-15.728 25.197c-.648 1.028-.266 2.466.852 3.154 1.125.712 2.57.418 3.223-.613l15.728-25.187c.649-1.057.266-2.476-.857-3.185zm-24.636 44.7c-1.16-2.431-2.975-4.586-5.429-6.113-2.452-1.527-5.184-2.204-7.873-2.172l-.434-11.112 23.876 14.9zm-6.734-4.022a11.33 11.33 0 0 1 4.393 5.056l-10.42 4.62-.445-11.388c2.205-.088 4.457.46 6.472 1.712z"/></defs><g><g transform="translate(-87 -403)"><use fill="#fff" xlink:href="#al9na"/></g></g></svg>